<?xml version="1.0" encoding="UTF-8"?>
<svg version="1.1" xmlns="http://www.w3.org/2000/svg" width="50" height="50">
<path d="M0 0 C5.24154006 5.11964378 7.79233015 10.97438966 8.09765625 18.36328125 C7.58438185 25.61171732 4.97987226 31.50054522 -0.4375 36.375 C-6.03546127 40.75137227 -12.19604897 42.51296426 -19.3046875 41.75390625 C-26.23187058 40.4361088 -31.48397749 37.49085254 -35.89453125 31.82421875 C-39.37509541 26.08067295 -40.67356141 19.76812443 -39.56640625 13.16015625 C-37.67692299 5.95405802 -34.13352469 1.20465606 -28 -3 C-25.4375 -4.3125 -25.4375 -4.3125 -23 -5 C-22.13375 -5.2475 -21.2675 -5.495 -20.375 -5.75 C-12.91532914 -6.30256821 -5.76634414 -4.9425807 0 0 Z M-19 -2 C-22.30290192 1.45201833 -22.30290192 1.45201833 -23 6 C-21.02 6 -19.04 6 -17 6 C-17 3.36 -17 0.72 -17 -2 C-17.66 -2 -18.32 -2 -19 -2 Z M-15 -2 C-15 0.64 -15 3.28 -15 6 C-13.02 6 -11.04 6 -9 6 C-9.59687434 2.65750371 -10.73603877 0.53563658 -13 -2 C-13.66 -2 -14.32 -2 -15 -2 Z M-27 0 C-28.63676257 1.9600281 -28.63676257 1.9600281 -30 4 C-28.68 4.33 -27.36 4.66 -26 5 C-25.67 3.35 -25.34 1.7 -25 0 C-25.66 0 -26.32 0 -27 0 Z M-7 0 C-6.67 1.65 -6.34 3.3 -6 5 C-4.68 4.34 -3.36 3.68 -2 3 C-3.37485532 1.45833358 -3.37485532 1.45833358 -5 0 C-5.66 0 -6.32 0 -7 0 Z M-33 6 C-35.15305957 9.85756507 -36.39253254 12.55129785 -36 17 C-33.36 17 -30.72 17 -28 17 C-28 14.03 -28 11.06 -28 8 C-30.475 7.01 -30.475 7.01 -33 6 Z M0 6 C-1.98 6.99 -1.98 6.99 -4 8 C-4 10.97 -4 13.94 -4 17 C-1.36 17 1.28 17 4 17 C3.76995266 11.6092003 3.76995266 11.6092003 1.4375 7 C0.963125 6.67 0.48875 6.34 0 6 Z M-25 9 C-25 11.64 -25 14.28 -25 17 C-22.36 17 -19.72 17 -17 17 C-17 14.36 -17 11.72 -17 9 C-19.64 9 -22.28 9 -25 9 Z M-15 9 C-15 11.64 -15 14.28 -15 17 C-12.36 17 -9.72 17 -7 17 C-7 14.36 -7 11.72 -7 9 C-9.64 9 -12.28 9 -15 9 Z M-36 19 C-35.76995266 24.3907997 -35.76995266 24.3907997 -33.4375 29 C-32.963125 29.33 -32.48875 29.66 -32 30 C-30.68 29.34 -29.36 28.68 -28 28 C-28 25.03 -28 22.06 -28 19 C-30.64 19 -33.28 19 -36 19 Z M-25 19 C-25 21.64 -25 24.28 -25 27 C-22.36 27 -19.72 27 -17 27 C-17 24.36 -17 21.72 -17 19 C-19.64 19 -22.28 19 -25 19 Z M-15 19 C-15 21.64 -15 24.28 -15 27 C-12.36 27 -9.72 27 -7 27 C-7 24.36 -7 21.72 -7 19 C-9.64 19 -12.28 19 -15 19 Z M-4 19 C-4 21.97 -4 24.94 -4 28 C-1.525 28.99 -1.525 28.99 1 30 C3.15305957 26.14243493 4.39253254 23.44870215 4 19 C1.36 19 -1.28 19 -4 19 Z M-23 30 C-22.40312566 33.34249629 -21.26396123 35.46436342 -19 38 C-18.34 38 -17.68 38 -17 38 C-17 35.36 -17 32.72 -17 30 C-18.98 30 -20.96 30 -23 30 Z M-15 30 C-15 32.64 -15 35.28 -15 38 C-11.83884224 36.63016497 -11.0072908 36.0109362 -9 33 C-9 32.01 -9 31.02 -9 30 C-10.98 30 -12.96 30 -15 30 Z M-28 31 C-28.66 31.66 -29.32 32.32 -30 33 C-28.62514468 34.54166642 -28.62514468 34.54166642 -27 36 C-26.34 36 -25.68 36 -25 36 C-25.33 34.35 -25.66 32.7 -26 31 C-26.66 31 -27.32 31 -28 31 Z M-6 31 C-6.33 32.65 -6.66 34.3 -7 36 C-3.87802522 34.6910428 -3.87802522 34.6910428 -2 32 C-3.32 31.67 -4.64 31.34 -6 31 Z " fill="#FFFFFF" transform="translate(41,7)"/>
</svg>
